<svg xmlns="http://www.w3.org/2000/svg" width="119.968" height="30" viewBox="0 0 119.968 30"><g transform="translate(-375 -2366)"><path d="M448.613,2393.7v-19.5h5.059v2.474h.112a4.362,4.362,0,0,1,.812-1.326,3.955,3.955,0,0,1,1.33-.969,4.386,4.386,0,0,1,1.846-.365,5.186,5.186,0,0,1,2.673.748,5.429,5.429,0,0,1,2.068,2.354,9.392,9.392,0,0,1,.8,4.173,9.533,9.533,0,0,1-.762,4.072,5.51,5.51,0,0,1-2.031,2.41,5.148,5.148,0,0,1-2.784.794,4.544,4.544,0,0,1-1.777-.328,3.948,3.948,0,0,1-1.33-.9,4.027,4.027,0,0,1-.844-1.288h-.074v7.645Zm6.034-15.368a2.544,2.544,0,0,0-.776,1.155,5.31,5.31,0,0,0-.273,1.8,5.257,5.257,0,0,0,.273,1.787,2.6,2.6,0,0,0,.776,1.163,1.977,1.977,0,0,0,2.4.009,2.508,2.508,0,0,0,.757-1.154,6.31,6.31,0,0,0,0-3.61,2.518,2.518,0,0,0-.757-1.155,1.838,1.838,0,0,0-1.2-.4A1.874,1.874,0,0,0,454.647,2378.333ZM431.613,2393.7v-19.5h5.06v2.474h.111a4.362,4.362,0,0,1,.812-1.326,3.955,3.955,0,0,1,1.33-.969,4.386,4.386,0,0,1,1.846-.365,5.186,5.186,0,0,1,2.673.748,5.429,5.429,0,0,1,2.068,2.354,9.392,9.392,0,0,1,.8,4.173,9.532,9.532,0,0,1-.762,4.072,5.51,5.51,0,0,1-2.031,2.41,5.148,5.148,0,0,1-2.784.794,4.544,4.544,0,0,1-1.777-.328,3.957,3.957,0,0,1-1.33-.9,4.027,4.027,0,0,1-.844-1.288h-.074v7.645Zm6.034-15.368a2.544,2.544,0,0,0-.776,1.155,5.31,5.31,0,0,0-.273,1.8,5.257,5.257,0,0,0,.273,1.787,2.6,2.6,0,0,0,.776,1.163,1.977,1.977,0,0,0,2.4.009,2.508,2.508,0,0,0,.757-1.154,6.309,6.309,0,0,0,0-3.61,2.518,2.518,0,0,0-.757-1.155,1.838,1.838,0,0,0-1.2-.4A1.876,1.876,0,0,0,437.647,2378.333Zm52.9,9.594a2.45,2.45,0,0,1-.752-1.833,2.4,2.4,0,0,1,.752-1.8,2.574,2.574,0,0,1,3.629,0,2.438,2.438,0,0,1,.789,1.8,2.493,2.493,0,0,1-.374,1.307,2.775,2.775,0,0,1-.947.932,2.424,2.424,0,0,1-1.264.346A2.516,2.516,0,0,1,490.549,2387.927Zm-14.052-.157a6.01,6.01,0,0,1-2.52-2.511,8.178,8.178,0,0,1-.882-3.929,7.965,7.965,0,0,1,.886-3.84,6.326,6.326,0,0,1,2.5-2.558,7.618,7.618,0,0,1,3.813-.915,8.075,8.075,0,0,1,2.908.5,6.129,6.129,0,0,1,2.226,1.445,6.442,6.442,0,0,1,1.422,2.294,8.719,8.719,0,0,1,.5,3.037v1.183h-9.232v.22a2.546,2.546,0,0,0,.286,1.219,2.078,2.078,0,0,0,.822.84,2.569,2.569,0,0,0,1.292.305,3.016,3.016,0,0,0,.965-.148,2.131,2.131,0,0,0,.752-.43,1.672,1.672,0,0,0,.462-.679h4.653a5.264,5.264,0,0,1-1.135,2.563,5.851,5.851,0,0,1-2.369,1.681,9.138,9.138,0,0,1-3.439.595A8.215,8.215,0,0,1,476.5,2387.769Zm6.163-8.1a2,2,0,0,0-.31-1.075,2.088,2.088,0,0,0-.8-.73,2.426,2.426,0,0,0-1.14-.264,2.47,2.47,0,0,0-1.136.264,2.147,2.147,0,0,0-.826.726,2,2,0,0,0-.328,1.08Zm-64.492,8.49a3.573,3.573,0,0,1-1.63-1.362,4.21,4.21,0,0,1-.591-2.327,4.555,4.555,0,0,1,.4-1.99,3.588,3.588,0,0,1,1.108-1.352,5.209,5.209,0,0,1,1.657-.8,9.909,9.909,0,0,1,2.045-.36,18.745,18.745,0,0,0,1.916-.226,2.534,2.534,0,0,0,1.048-.379.774.774,0,0,0,.324-.651v-.037a.974.974,0,0,0-.425-.85,1.869,1.869,0,0,0-1.09-.3,2.03,2.03,0,0,0-1.186.32,1.35,1.35,0,0,0-.55.974H416.5a4.826,4.826,0,0,1,.826-2.387,5.113,5.113,0,0,1,2.146-1.754,8.326,8.326,0,0,1,3.527-.661,9.7,9.7,0,0,1,2.733.356,6.5,6.5,0,0,1,2.059.988,4.426,4.426,0,0,1,1.3,1.478,3.857,3.857,0,0,1,.447,1.833v9.713h-4.764v-1.994h-.111a4.135,4.135,0,0,1-1.03,1.283,3.859,3.859,0,0,1-1.376.711,6.115,6.115,0,0,1-1.694.221A6,6,0,0,1,418.169,2388.157Zm5.881-5.822c-.15.05-.31.1-.48.139s-.347.083-.535.119-.383.072-.586.1a2.933,2.933,0,0,0-.965.3,1.438,1.438,0,0,0-.554.508,1.277,1.277,0,0,0-.18.669,1.063,1.063,0,0,0,.416.9,1.708,1.708,0,0,0,1.061.314,2.544,2.544,0,0,0,1.094-.24,2.1,2.1,0,0,0,.835-.693,1.837,1.837,0,0,0,.324-1.1v-1.182C424.344,2382.233,424.2,2382.287,424.049,2382.335Zm41.563,6.048V2374.2h5.1v14.181Zm.776-16.342a2.2,2.2,0,0,1,0-3.287,2.648,2.648,0,0,1,3.55,0,2.208,2.208,0,0,1,0,3.287,2.5,2.5,0,0,1-1.768.683A2.527,2.527,0,0,1,466.388,2372.041Z" fill="#fff"></path><g data-name="logo" transform="translate(254.327 2305.499)"><g data-name="Group 2404"><path data-name="Path 2354" d="M127.336,90.5H144.01A9.627,9.627,0,0,0,127.336,90.5Z" fill="#fff"></path><path data-name="Path 2355" d="M147.514,60.5H123.832a3.159,3.159,0,0,0-3.159,3.159V87.342a3.15,3.15,0,0,0,.247,1.226l14.753-25.553,6.647,11.513c-4.677-1.447-10.371,1.229-12.8,7.966,5.022-5.232,14.97-4.313,17.485.155l3.417,5.919a3.146,3.146,0,0,0,.247-1.226V63.66A3.159,3.159,0,0,0,147.514,60.5Z" fill="#2b70fa"></path></g></g></g></svg>